HIERARCHY
ROOT Hips
{
	OFFSET -0.001795 -0.223333 0.028219
	CHANNELS 6 Xposition Yposition Zposition Zrotation Yrotation Xrotation 
	JOINT LeftUpLeg
	{
		OFFSET 0.069520 -0.091406 -0.006815
		CHANNELS 3 Zrotation Yrotation Xrotation
		JOINT LeftLeg
		{
			OFFSET 0.034277 -0.375199 -0.004496
			CHANNELS 3 Zrotation Yrotation Xrotation
			JOINT LeftFoot
			{
				OFFSET -0.013596 -0.397961 -0.043693
				CHANNELS 3 Zrotation Yrotation Xrotation
				JOINT LeftToe
				{
					OFFSET 0.026358 -0.055791 0.119288
					CHANNELS 3 Zrotation Yrotation Xrotation
					End Site
					{
						OFFSET 0.000000 0.000000 0.000000
					}
				}
			}
		}
	}
	JOINT RightUpLeg
	{
		OFFSET -0.067670 -0.090522 -0.004320
		CHANNELS 3 Zrotation Yrotation Xrotation
		JOINT RightLeg
		{
			OFFSET -0.038290 -0.382569 -0.008850
			CHANNELS 3 Zrotation Yrotation Xrotation
			JOINT RightFoot
			{
				OFFSET 0.015774 -0.398415 -0.042312
				CHANNELS 3 Zrotation Yrotation Xrotation
				JOINT RightToe
				{
					OFFSET -0.025372 -0.048144 0.123348
					CHANNELS 3 Zrotation Yrotation Xrotation
					End Site
					{
						OFFSET 0.000000 0.000000 0.000000
					}
				}
			}
		}
	}
	JOINT Spine
	{
		OFFSET -0.002533 0.108963 -0.026696
		CHANNELS 3 Zrotation Yrotation Xrotation
		JOINT Spine1
		{
			OFFSET 0.005487 0.135180 0.001092
			CHANNELS 3 Zrotation Yrotation Xrotation
			JOINT Spine2
			{
				OFFSET 0.001457 0.052922 0.025425
				CHANNELS 3 Zrotation Yrotation Xrotation
				JOINT Neck
				{
					OFFSET -0.002778 0.213870 -0.042857
					CHANNELS 3 Zrotation Yrotation Xrotation
					JOINT Head
					{
						OFFSET 0.005152 0.064970 0.051349
						CHANNELS 3 Zrotation Yrotation Xrotation
						End Site
						{
							OFFSET 0.000000 0.000000 0.000000
						}
					}
				}
				JOINT LeftShoulder
				{
					OFFSET 0.078845 0.121749 -0.034090
					CHANNELS 3 Zrotation Yrotation Xrotation
					JOINT LeftArm
					{
						OFFSET 0.090977 0.030469 -0.008868
						CHANNELS 3 Zrotation Yrotation Xrotation
						JOINT LeftForeArm
						{
							OFFSET 0.259612 -0.012772 -0.027456
							CHANNELS 3 Zrotation Yrotation Xrotation
							JOINT LeftHand
							{
								OFFSET 0.249234 0.008986 -0.001171
								CHANNELS 3 Zrotation Yrotation Xrotation
								End Site
								{
									OFFSET 0.000000 0.000000 0.000000
								}
							}
						}
					}
				}
				JOINT RightShoulder
				{
					OFFSET -0.081759 0.118833 -0.038615
					CHANNELS 3 Zrotation Yrotation Xrotation
					JOINT RightArm
					{
						OFFSET -0.096012 0.032551 -0.009143
						CHANNELS 3 Zrotation Yrotation Xrotation
						JOINT RightForeArm
						{
							OFFSET -0.253742 -0.013329 -0.021401
							CHANNELS 3 Zrotation Yrotation Xrotation
							JOINT RightHand
							{
								OFFSET -0.255298 0.007772 -0.005559
								CHANNELS 3 Zrotation Yrotation Xrotation
								End Site
								{
									OFFSET 0.000000 0.000000 0.000000
								}
							}
						}
					}
				}
			}
		}
	}
}
MOTION
Frames: 13
Frame Time: 0.050000
-0.477325 0.965348 0.135965 -2.602095 53.181436 -2.273288 9.076928 -1.970922 -15.312523 -1.522856 -0.815015 9.753675 -0.315828 12.557888 18.658712 0.000000 0.000000 0.000000 0.440730 -0.379457 1.937747 3.698685 -1.798070 7.139951 -6.029591 -11.213187 11.387465 0.000000 0.000000 0.000000 -5.511683 -1.881132 19.801380 2.682301 0.966869 -24.160477 -1.561161 7.630934 35.098992 2.044150 5.588596 -17.068438 0.000000 0.000000 0.000000 -8.333551 -10.626894 -3.179891 -55.594886 -18.613829 -1.310685 -32.694851 -65.801778 11.164377 0.000000 0.000000 0.000000 6.753602 7.089463 6.936190 68.544763 21.436587 9.875461 -0.083738 37.818172 3.331546 0.000000 0.000000 0.000000 
-0.493073 0.966636 0.138329 -3.286326 54.182748 -3.246364 8.708557 -1.859908 -14.456402 -0.884532 -0.622870 7.649541 -1.205387 12.271778 19.983411 0.000000 0.000000 0.000000 0.969496 -0.412866 2.392842 3.666717 -1.762573 6.689690 -6.299885 -11.283469 12.459561 0.000000 0.000000 0.000000 -5.207861 -2.101991 20.486506 2.903572 0.964242 -23.785134 -0.641642 8.085284 35.274976 3.133174 5.013899 -16.774239 0.000000 0.000000 0.000000 -7.739716 -11.502222 -2.695488 -55.105478 -19.530911 -1.152259 -32.209181 -66.217165 10.702798 0.000000 0.000000 0.000000 6.392568 8.302318 7.435915 68.590164 22.496911 10.762430 -2.138993 36.443124 2.282743 0.000000 0.000000 0.000000 
-0.509120 0.966620 0.140573 -4.118770 55.754998 -4.002412 8.049325 -1.796434 -14.016966 0.442113 -0.486032 5.567621 -2.224628 11.622776 20.579434 0.000000 0.000000 0.000000 1.321873 -0.384462 2.294392 3.682375 -1.845467 6.743816 -6.435494 -11.429605 12.467691 0.000000 0.000000 0.000000 -4.875122 -2.124843 20.085789 3.492063 0.890519 -23.093569 -0.040896 7.887306 35.170877 2.999231 5.174735 -16.512927 0.000000 0.000000 0.000000 -7.853942 -12.004732 -2.771493 -54.520445 -19.053230 -1.281404 -32.922322 -64.976002 10.674210 0.000000 0.000000 0.000000 6.081453 9.544758 7.990187 67.192707 22.942762 10.702024 -1.255687 36.774514 2.398708 0.000000 0.000000 0.000000 
-0.525540 0.966799 0.143504 -4.706430 56.331148 -5.028663 7.598866 -1.704338 -13.492463 2.022680 -0.392969 3.858857 -4.337017 10.003441 21.554216 0.000000 0.000000 0.000000 1.479756 -0.445298 2.718744 3.894140 -1.915889 6.580789 -6.864130 -12.097131 13.029977 0.000000 0.000000 0.000000 -4.506623 -2.067920 19.480632 3.704718 0.872597 -22.571294 0.628961 8.480295 35.117168 3.541997 5.068020 -16.851617 0.000000 0.000000 0.000000 -7.909227 -12.767771 -2.739470 -53.380267 -17.611024 -1.659859 -36.370252 -64.881489 12.383137 0.000000 0.000000 0.000000 6.882203 10.451005 9.006606 65.991729 23.489059 10.421225 -0.834537 36.858821 2.400392 0.000000 0.000000 0.000000 
-0.541962 0.966186 0.146838 -4.726268 56.210301 -4.929249 7.632497 -1.727366 -13.673862 2.702819 -0.364933 3.222012 -5.060020 9.695951 22.403949 0.000000 0.000000 0.000000 1.408203 -0.500053 3.043939 4.055085 -1.793884 5.431412 -7.041001 -12.337852 13.364552 0.000000 0.000000 0.000000 -3.982056 -1.979727 18.814815 3.536525 0.929538 -21.911679 0.785253 8.723191 34.260948 3.313301 5.323199 -17.325492 0.000000 0.000000 0.000000 -8.600430 -12.995129 -3.049838 -52.714235 -16.108371 -1.885181 -38.546671 -65.167165 13.779158 0.000000 0.000000 0.000000 7.907242 11.625523 10.246841 63.882089 25.116310 10.326552 -0.628959 36.909599 2.319420 0.000000 0.000000 0.000000 
-0.558104 0.967175 0.149794 -3.751857 57.523013 -4.644048 6.880039 -1.661013 -13.411732 2.932919 -0.356862 2.996720 -5.893768 9.139073 22.766068 0.000000 0.000000 0.000000 0.857485 -0.613969 3.410521 4.101339 -1.672995 4.087238 -7.221201 -12.213182 14.248787 0.000000 0.000000 0.000000 -3.419125 -1.986966 18.354222 3.278322 1.021855 -21.075970 1.205454 8.425524 33.568158 3.074195 5.558337 -17.470231 0.000000 0.000000 0.000000 -8.481551 -14.218617 -2.644914 -52.780484 -16.188678 -1.860058 -40.163651 -66.125354 14.869148 0.000000 0.000000 0.000000 7.202963 12.918959 10.541427 62.866293 25.603612 10.691056 -0.169801 38.395136 2.480391 0.000000 0.000000 0.000000 
-0.574008 0.967471 0.152448 -3.387486 59.509826 -4.968548 6.616796 -1.741317 -13.939226 2.975976 -0.373938 3.161107 -5.753438 9.987643 23.767172 0.000000 0.000000 0.000000 0.650944 -0.808056 4.324881 4.241658 -1.693846 3.287797 -7.091328 -11.881621 14.182718 0.000000 0.000000 0.000000 -2.959286 -2.108705 18.397068 3.095679 1.121715 -20.842437 1.560156 8.119714 33.131261 3.025483 5.812750 -17.957493 0.000000 0.000000 0.000000 -9.261695 -14.716817 -3.157109 -52.815265 -15.562811 -1.788796 -41.040741 -66.905752 15.442574 0.000000 0.000000 0.000000 7.200763 13.625052 11.019359 61.021852 26.776884 10.922150 -0.510874 40.632216 2.654597 0.000000 0.000000 0.000000 
-0.589625 0.968240 0.154513 -2.585931 61.008960 -5.179227 6.793179 -1.700612 -13.436144 2.016987 -0.340462 3.038491 -5.833329 10.183183 24.233487 0.000000 0.000000 0.000000 0.070383 -1.011665 5.064228 4.654894 -1.852544 3.078783 -7.301178 -12.261702 14.301359 0.000000 0.000000 0.000000 -2.858755 -2.215530 18.597914 3.090281 1.154276 -20.472677 1.665056 8.134253 32.890209 2.423035 6.232162 -17.855319 0.000000 0.000000 0.000000 -10.352021 -15.236625 -3.791856 -52.353962 -14.902572 -1.548582 -44.955077 -67.044644 17.899136 0.000000 0.000000 0.000000 7.659861 13.998348 11.582701 58.887415 27.922970 10.806797 0.442766 43.418377 3.467041 0.000000 0.000000 0.000000 
-0.604901 0.969205 0.156298 -2.067938 62.570247 -5.563273 7.053616 -1.665839 -12.836701 1.156825 -0.348331 3.206139 -6.137709 10.245894 24.873653 0.000000 0.000000 0.000000 -0.150283 -1.147749 5.530522 4.712640 -1.853764 2.471950 -7.581518 -12.441329 14.995206 0.000000 0.000000 0.000000 -2.286219 -2.290698 18.398107 2.918588 1.229560 -20.047151 1.892245 8.286253 32.719012 2.577223 6.298743 -18.064776 0.000000 0.000000 0.000000 -11.072975 -15.668930 -4.459293 -53.078589 -14.760666 -1.363435 -49.308715 -66.213218 19.924859 0.000000 0.000000 0.000000 6.744641 14.489502 11.443854 58.779225 27.876624 11.288172 2.183653 46.121022 4.666065 0.000000 0.000000 0.000000 
-0.619560 0.969298 0.157920 -2.536563 64.728296 -6.467889 7.923312 -1.763679 -12.674215 -0.237771 -0.388412 3.486644 -5.016466 11.453398 25.201159 0.000000 0.000000 0.000000 0.015107 -1.290252 6.135093 5.093276 -1.964957 1.698394 -7.283368 -11.909792 14.595519 0.000000 0.000000 0.000000 -1.655142 -2.465804 18.490429 2.963795 1.265112 -20.118364 1.934267 7.667950 32.281458 2.679038 6.474666 -18.724673 0.000000 0.000000 0.000000 -11.946889 -16.636338 -4.855580 -53.142936 -13.502392 -1.477675 -55.494509 -66.025744 23.598601 0.000000 0.000000 0.000000 6.747875 15.151945 11.898611 57.960061 28.326422 11.399890 5.181273 49.649904 6.791011 0.000000 0.000000 0.000000 
-0.633226 0.969715 0.159778 -2.683417 66.695047 -7.199027 7.599948 -1.740737 -12.453423 -0.238095 -0.459695 4.242230 -4.992547 11.336143 24.692250 0.000000 0.000000 0.000000 0.259105 -1.455427 6.847838 5.300757 -1.958194 0.314537 -7.696917 -12.238975 15.466104 0.000000 0.000000 0.000000 -1.102063 -2.686919 18.796079 2.601978 1.395399 -20.151466 2.113399 7.756103 32.187909 2.876984 6.233728 -17.499832 0.000000 0.000000 0.000000 -11.864954 -17.872625 -4.821782 -53.744724 -14.206618 -1.200402 -53.244607 -65.451160 21.278598 0.000000 0.000000 0.000000 6.950308 15.264841 12.331135 57.451096 27.795120 10.963862 6.015626 50.589217 7.451710 0.000000 0.000000 0.000000 
-0.645151 0.970294 0.161705 -3.467653 69.104534 -8.485591 7.759942 -1.756498 -12.076742 -0.990880 -0.457473 3.325901 -4.607389 11.895085 25.157363 0.000000 0.000000 0.000000 0.880936 -1.615629 7.573033 6.044902 -2.156240 -1.114888 -7.918168 -12.112363 16.357033 0.000000 0.000000 0.000000 -0.280935 -2.838483 18.649175 2.482208 1.482488 -19.254026 1.986217 7.257958 31.924396 2.485793 6.332304 -16.673420 0.000000 0.000000 0.000000 -12.471949 -19.377799 -4.918246 -54.240915 -14.831107 -0.726765 -50.800457 -65.427555 19.466889 0.000000 0.000000 0.000000 6.466963 16.449903 12.812910 56.689733 28.012327 11.091600 6.920386 51.284949 7.935107 0.000000 0.000000 0.000000 
-0.655810 0.970123 0.163477 -3.882273 71.041162 -9.213886 7.440567 -1.765254 -12.206103 -1.136328 -0.474998 2.829473 -2.927649 13.239914 25.138780 0.000000 0.000000 0.000000 1.400758 -1.628008 7.635374 6.293756 -2.274923 -1.567570 -8.211555 -12.389791 16.702367 0.000000 0.000000 0.000000 0.126651 -3.010008 18.804980 2.368061 1.546233 -18.987243 1.908315 6.967778 31.602539 2.348260 6.293179 -15.920371 0.000000 0.000000 0.000000 -12.963984 -20.447811 -5.149289 -54.490369 -15.263342 -0.275472 -47.323976 -65.453794 17.061852 0.000000 0.000000 0.000000 6.998547 17.047867 13.675532 55.817176 28.569939 10.979557 5.801820 49.596789 6.723447 0.000000 0.000000 0.000000 
